<svg xmlns:dc="http://purl.org/dc/elements/1.1/" xmlns:cc="http://creativecommons.org/ns#" xmlns:rdf="http://www.w3.org/1999/02/22-rdf-syntax-ns#" xmlns:svg="http://www.w3.org/2000/svg" xmlns="http://www.w3.org/2000/svg" xmlns:sodipodi="http://sodipodi.sourceforge.net/DTD/sodipodi-0.dtd" xmlns:inkscape="http://www.inkscape.org/namespaces/inkscape" version="1.1" x="0px" y="0px" viewBox="0 0 100 125"><g transform="translate(0,-952.36218)"><path d="m 7.0106175,962.36227 c -1.1046,0 -2,0.89543 -2,2 0,1.10457 0.8954,2 2,2 l 12.3749995,0 10.5312,49.75003 c 0.2555,1.2291 1.0765,2.263 2.0938,2.25 l 50,0 c 1.0566,0.015 2.0285,-0.9432 2.0285,-2 0,-1.0567 -0.9719,-2.0149 -2.0285,-2 l -48.375,0 -1.6875,-8 54.0625,0 c 0.8955,-0.01 1.7416,-0.6887 1.9375,-1.5625 l 7,-30.00002 c 0.2601,-1.16072 -0.748,-2.429 -1.9375,-2.4375 l -68.25,0 -1.7812,-8.43751 c -0.1982,-0.88398 -1.0629,-1.57023 -1.9688,-1.5625 z m 18.5937995,14.00001 17.7187,0 1.8437,10.99997 -17.2187,0 z m 21.75,0 21.3124,0 -1.8437,10.99997 -17.625,0 z m 25.3437,0 17.8125,0 -2.5625,10.99997 -17.0937,0 z m -43.9063,14.99997 17.0313,0 1.8437,11.00005 -16.5624,0 z m 21.0938,0 16.25,0 -1.8125,11.00005 -12.625,0 z m 20.3125,0 16.8125,0 -2.5938,11.00005 -16.0624,0 z m -27.1875,32.99995 c -4.9468,0 -9,4.0531 -9,9 0,4.9469 4.0532,9 9,9 4.9469,0 9,-4.0531 9,-9 0,-4.9469 -4.0531,-9 -9,-9 z m 28,0 c -4.9468,0 -9,4.0531 -9,9 0,4.9469 4.0532,9 9,9 4.9469,0 9,-4.0531 9,-9 0,-4.9469 -4.0531,-9 -9,-9 z m -28,4 c 2.7851,0 5,2.2149 5,5 0,2.7851 -2.2149,5 -5,5 -2.785,0 -5,-2.2149 -5,-5 0,-2.7851 2.215,-5 5,-5 z m 28,0 c 2.7851,0 5,2.2149 5,5 0,2.7851 -2.2149,5 -5,5 -2.785,0 -5,-2.2149 -5,-5 0,-2.7851 2.215,-5 5,-5 z" style="text-indent:0;text-transform:none;direction:ltr;block-progression:tb;baseline-shift:baseline;color:#000000;enable-background:accumulate;" fill="#ffffff" fill-opacity="1" stroke="none" marker="none" visibility="visible" display="inline" overflow="visible"/></g></svg>